<?xml version="1.0" encoding="utf-8" ?><svg xmlns="http://www.w3.org/2000/svg" xmlns:xlink="http://www.w3.org/1999/xlink" width="1801" height="1801" viewBox="0 0 1801 1801"><defs><linearGradient id="gradient_0" gradientUnits="userSpaceOnUse" x1="2148.7119" y1="1892.1714" x2="2463.7532" y2="2079.0508"><stop offset="0" stop-color="#B0C68F"/><stop offset="1" stop-color="#628794"/></linearGradient></defs><path fill="url(#gradient_0)" transform="scale(0.439697 0.439697)" d="M2318.72 1473.72L2490.51 1474.58C2508.21 1474.5 2529.32 1473.85 2546.73 1474.83C2552.52 1491.31 2549.6 1636.03 2549.61 1660.97L2550.14 1974.03L2551.22 2303.19C2551.09 2347.51 2552.29 2406.17 2549.96 2449.88C2508.45 2450.58 2464.92 2449.6 2423.28 2449.14C2402.17 2448.91 2369.07 2449.76 2349.13 2448.14C2348.2 2244.11 2348.64 2040.08 2350.45 1836.06C2343.45 1840.81 2315.53 1913.68 2309.87 1926.88C2268.48 2022.47 2227.62 2118.28 2187.27 2214.3C2156.09 2287.62 2112.46 2377.42 2084.91 2449.96L2000.74 2449.55C1981.18 2450.44 1974.45 2454.03 1966.02 2433.85C1961.95 2417.7 1945.73 2382.03 1938.67 2365.46C1930.12 2341.22 1914.62 2307.2 1904.42 2283.08L1832.09 2114.09L1752.75 1927.8C1740.05 1898.34 1727.23 1865.7 1713.16 1837.25C1710.42 1885.69 1711.79 1950.96 1711.62 2000.45L1710.9 2302.61C1710.83 2346.88 1712.27 2397.33 1709.86 2441.01C1688.86 2421.52 1657.47 2373.01 1638.22 2347.74L1553.05 2235.54C1539.53 2217.88 1525 2201.61 1512.4 2183.36L1512.23 1898.01C1521.5 1882.35 1528.9 1870.55 1539.38 1855.71L1542.07 1852.21C1550.74 1834.69 1593.83 1775.05 1606.81 1757.15C1617.08 1739.27 1654.89 1688.4 1668.5 1669.4C1673.14 1659.75 1691.32 1633.59 1697.89 1623.63C1720.13 1589.91 1743.3 1554.88 1767.36 1522.43C1789.61 1571.18 1814.06 1635.69 1835.38 1686.09C1880.32 1790.93 1926 1895.45 1972.42 1999.63C1984.57 2026.52 1996.47 2053.51 2008.11 2080.62C2014.11 2094.96 2023.8 2121.1 2030.71 2133.96C2042.06 2110.79 2052.01 2086.33 2062.05 2062.51C2099.94 1972.58 2140.83 1883.97 2179.84 1794.56C2185.11 1782.48 2190.43 1769.61 2196.47 1757.96C2221.56 1694.57 2254.09 1630.22 2279.88 1566.66C2290.9 1539.51 2310.98 1501.16 2318.72 1473.72Z"/><path fill="#DACB48" transform="scale(0.439697 0.439697)" d="M1767.36 1522.43C1789.61 1571.18 1814.06 1635.69 1835.38 1686.09C1880.32 1790.93 1926 1895.45 1972.42 1999.63C1984.57 2026.52 1996.47 2053.51 2008.11 2080.62C2014.11 2094.96 2023.8 2121.1 2030.71 2133.96C2042.06 2110.79 2052.01 2086.33 2062.05 2062.51C2099.94 1972.58 2140.83 1883.97 2179.84 1794.56C2190.02 1790.54 2190.59 1787.97 2202.01 1787.18C2206.94 1789.25 2207.93 1789.07 2211.32 1792.99L2212.08 1798.2L2208.83 1797.45C2206.44 1813.32 2200.02 1804.64 2203.62 1822.89C2202.64 1821.74 2201.66 1820.6 2200.68 1819.45C2195.52 1827.78 2184.4 1835.64 2182.05 1842.19L2183.59 1849.91C2198.53 1848.99 2187.2 1840.41 2199.73 1833.94C2205.81 1846 2202 1838.66 2202 1851.33L2193.17 1853.76L2190.57 1851.86L2189.76 1854.81L2191.52 1857.52L2187.13 1857.87C2185.33 1855.08 2183.48 1852.32 2181.58 1849.6C2179.59 1850.7 2177.59 1851.81 2175.6 1852.92L2177.59 1855.87C2176.48 1860.12 2175.55 1863.9 2174.63 1868.19L2167.87 1875.29L2168.75 1878.58L2169.94 1878.96L2167.57 1876.45C2173.43 1879.95 2175.5 1879.38 2181.99 1879.13L2182.05 1880.79C2175.1 1886.45 2176.64 1883.12 2174.82 1890C2177.78 1895.2 2177.89 1895.42 2181.95 1899.79C2175.21 1907.78 2176.42 1895.26 2174.36 1908.04L2175.83 1911.32C2179.86 1912.2 2182.09 1912.7 2186.18 1913.09C2175.06 1916.82 2172.31 1913.45 2163.06 1907.42C2168.09 1907.19 2167.75 1907.63 2172.21 1905.31C2169.91 1898.24 2166.39 1898.38 2158.99 1898.44C2158.22 1902.87 2158.32 1903.42 2158.52 1907.96L2155.18 1908.08C2150.09 1896.93 2160.47 1895.62 2154.01 1887.38L2149.38 1890.88C2152.6 1902.86 2143.09 1914.29 2145.91 1916.63C2152.12 1913.38 2154.23 1911.77 2161.55 1911.9C2165.66 1915.27 2164.65 1913.09 2165.23 1918.27C2157.81 1923.52 2159.76 1920.17 2157.85 1927.79C2167.96 1934.02 2160.14 1920.99 2169.79 1930.8L2169.84 1938.71C2168.97 1937.08 2168.11 1935.44 2167.24 1933.81L2164.08 1934.05C2161.59 1939.55 2161.76 1942.09 2161.27 1948.01L2157.97 1949.86L2153.63 1948.54L2153.33 1945.54L2159.89 1938.86L2158.39 1936.62C2149.98 1935.43 2150.43 1935.38 2142.27 1937.69L2139.57 1940.9C2147.64 1941.94 2145.04 1940.06 2149.78 1944.46L2149.58 1947.55L2143.98 1949.99C2143.08 1956.01 2143.25 1953.07 2147.35 1960.22C2149.37 1957.34 2148.53 1959 2149.63 1955.14C2148.49 1964.65 2144.06 1965.34 2145 1974.96L2149.71 1981.4L2148.7 1983.23L2143.67 1984.62C2146.73 1997.76 2147.64 1984.87 2151.87 1995.08L2147.46 1993.41C2141.52 2001.03 2143.37 2004.53 2145.4 2013.54L2143.29 2016.96L2139.91 2017.67L2136.65 2015.43C2142.25 1995.15 2144.32 1991.3 2141.62 1970.11L2139.86 1970.57L2139.15 1974.21C2137.58 1981.95 2135.6 1985.37 2131.85 1992.03C2134.09 2003.04 2137.47 1991.08 2136.58 2001.17C2129.87 2003.84 2132.04 2001.63 2128.95 2007C2127.48 2002.22 2127.29 1998.95 2126.63 1994.02L2122.68 1996.09L2122.96 2001.54L2119.87 2002.75L2116.8 1997.42C2112.26 2001.03 2112.62 2000.83 2110.44 2006.26C2112.92 2009.61 2113.32 2009.96 2116.44 2012.76L2115.37 2017.23C2100.3 2019.73 2097.84 2013.96 2089.68 2020.64C2086.82 2030.66 2090.74 2033.01 2090.27 2042.44C2083.85 2049.7 2076.21 2056.93 2072.96 2065.75C2076.52 2077.81 2086.92 2075.06 2083.31 2085.34L2081.82 2080.61C2071.05 2077.73 2059.98 2092.08 2056.81 2100.99L2058.15 2103.4C2062.51 2101.66 2066.84 2099.84 2071.14 2097.96L2070 2104.41L2054.82 2106.85C2052.7 2113.71 2055.33 2117.71 2054.91 2118.44C2049.09 2128.72 2042.61 2118.58 2047.16 2133.54L2046.3 2135.34L2041.89 2133.85L2041.42 2130.35L2041.25 2132.4L2038.68 2132.93L2036.96 2135.79C2041.58 2139.04 2057.55 2138.63 2065.96 2139.98C2061.79 2143.87 2062.89 2142.79 2057.54 2145.43L2049.94 2143.13C2045.11 2147.71 2050.55 2152.68 2046.1 2157.74L2042.8 2155.85L2043.47 2148.33L2034.46 2145.96L2035.17 2145.81C2027.73 2146.69 2023.42 2153.24 2012.94 2157.78C2019.12 2163.49 2017.67 2160.2 2019.13 2167.11C2017.09 2172.72 2015.41 2177.4 2013.74 2183.19L2018.13 2185.52L2018.31 2187.45L2015.29 2190.11C2011.95 2193.13 2011.44 2193.47 2009.93 2197.81C2014.62 2198.52 2014.6 2198.25 2019.31 2197.23L2019.09 2201.32C2013.64 2204.57 2015.61 2203.62 2007.32 2201.7C1999.31 2190.89 2008.53 2191.73 2001.07 2189.21C1998.36 2201.79 2005.03 2198.95 1998.25 2204.61C1998.03 2199.78 1998.17 2197.26 1995.93 2192.93L1989.21 2190.1C1987.76 2193.7 1987.93 2192.22 1987.84 2194.37C1959.11 2198.63 1967.41 2204.87 1966.17 2228.41L1966.02 2231.73L1963.67 2233.68C1971.26 2256.99 1956.89 2243.96 1967.82 2260.99L1967.13 2268.26C1968.01 2272.69 1968.37 2270.75 1966.7 2274.19L1968.54 2271.47L1967.71 2278L1966.1 2278.45L1963.37 2273.2L1959.81 2272.63L1961.45 2279.2L1959.03 2279.49C1954.33 2286.75 1953.56 2287.41 1951.65 2295.62L1953.31 2297.83L1959.32 2298.48C1962.14 2302.47 1961.84 2306.7 1959.1 2310.84L1957.93 2305.85C1953.27 2308.77 1954.47 2306.78 1952.9 2311.07C1955.87 2314.61 1954.18 2313 1957.99 2315.86C1950.75 2320.22 1954.39 2312.82 1949.37 2318.92C1951.52 2329.57 1955.44 2327.38 1958.82 2334.84L1955.71 2333.37C1949.8 2335.37 1948.65 2335.12 1944.7 2339.95L1946.75 2342.58L1952.59 2343.23C1950.56 2352.81 1949.85 2354.28 1945.15 2362.91C1942.24 2364.29 1941.78 2364.77 1938.67 2365.46C1930.12 2341.22 1914.62 2307.2 1904.42 2283.08L1832.09 2114.09L1752.75 1927.8C1740.05 1898.34 1727.23 1865.7 1713.16 1837.25C1710.42 1885.69 1711.79 1950.96 1711.62 2000.45L1710.9 2302.61C1710.83 2346.88 1712.27 2397.33 1709.86 2441.01C1688.86 2421.52 1657.47 2373.01 1638.22 2347.74L1553.05 2235.54C1539.53 2217.88 1525 2201.61 1512.4 2183.36L1512.23 1898.01C1521.5 1882.35 1528.9 1870.55 1539.38 1855.71L1542.07 1852.21C1550.74 1834.69 1593.83 1775.05 1606.81 1757.15C1617.08 1739.27 1654.89 1688.4 1668.5 1669.4C1673.14 1659.75 1691.32 1633.59 1697.89 1623.63C1720.13 1589.91 1743.3 1554.88 1767.36 1522.43Z"/><path fill="#ECC439" transform="scale(0.439697 0.439697)" d="M1668.5 1669.4L1673.09 1675.35C1670.98 1683.7 1672.53 1690.35 1671.84 1698.94C1675.67 1702.54 1675.5 1702.21 1680.64 1703.58C1684.38 1710.16 1684.35 1712.26 1685.63 1719.56L1692.96 1719.81C1691.65 1731.62 1679.27 1729.19 1684.98 1740.29C1692.42 1739.27 1695.32 1737.01 1699.95 1739.67C1702.33 1745.59 1702.59 1745.23 1701.83 1751.45C1697.05 1756.56 1699.85 1755.2 1693.47 1756.27L1689.61 1750.66C1683.66 1763 1676.76 1765.33 1668.84 1775.33L1671.06 1779.34C1668.31 1784.34 1668.68 1784.47 1664.09 1787.67C1659.36 1783.83 1660.43 1784.16 1657.81 1777.92C1653.21 1781.16 1649.7 1799.55 1648.56 1805.87C1648.31 1807.23 1648.08 1808.59 1647.88 1809.95L1645.43 1809.48C1645.19 1803.88 1645.58 1799.02 1643.08 1794.13C1638.23 1792.32 1640.78 1792.57 1635.23 1794.69C1633.52 1786.47 1637.5 1789.96 1637.33 1785.65C1637.02 1777.89 1612.01 1760.32 1606.81 1757.15C1617.08 1739.27 1654.89 1688.4 1668.5 1669.4Z"/><path fill="#ECC439" transform="scale(0.439697 0.439697)" d="M1542.07 1852.21C1547.88 1852.81 1550.44 1855.73 1555.09 1859.4C1556.83 1863.73 1558.24 1866.63 1559.28 1871.2L1561.67 1870.21C1562.34 1862.73 1561.11 1860.1 1565.11 1855.8C1572.24 1855.85 1568.92 1854.87 1575.07 1859.79C1580.9 1874.76 1574.32 1869.09 1572.28 1878.19C1580.42 1887.93 1590.49 1879.31 1591.81 1891.21L1588.91 1895.85C1582.4 1895.99 1582.42 1895.82 1576.05 1894.15C1567.32 1897.51 1562.7 1901.4 1555.99 1898.62C1543.97 1884.32 1545.57 1869.44 1539.77 1861.93L1539.38 1855.71L1542.07 1852.21Z"/><path fill="#AAC57C" transform="scale(0.439697 0.439697)" d="M1959.03 2279.49C1956.34 2267.88 1955.35 2242.66 1963.67 2233.68C1971.26 2256.99 1956.89 2243.96 1967.82 2260.99L1967.13 2268.26C1968.01 2272.69 1968.37 2270.75 1966.7 2274.19L1968.54 2271.47L1967.71 2278L1966.1 2278.45L1963.37 2273.2L1959.81 2272.63L1961.45 2279.2L1959.03 2279.49Z"/><path fill="#ECC439" transform="scale(0.439697 0.439697)" d="M1572.94 1936.54C1566.71 1937.03 1562.89 1937.41 1558.7 1932.69C1560.85 1927.32 1562.27 1926.2 1566.03 1921.95L1567.32 1920.51L1559.34 1919.34C1550.02 1925.53 1560.4 1923.7 1555.99 1935.58L1547.7 1936.91C1543.63 1932.42 1545.05 1930 1544.64 1922.13L1542.42 1920.62C1538.22 1923.88 1538.03 1924.89 1532.94 1925.16C1527.02 1919.69 1522.08 1905.36 1527.49 1898.13C1533.67 1896.18 1533.61 1896.98 1540.41 1897.99C1556.7 1914.66 1558.14 1901.92 1572.27 1909.12C1576.09 1915.28 1576.2 1914.78 1576.24 1921.93C1573.17 1927.01 1572.88 1927.38 1573.23 1933.31C1583.82 1939.31 1587.63 1937.55 1600.9 1936.49C1605.18 1942.97 1605.99 1964.61 1606.24 1972.63L1604.03 1975.57L1601.69 1978.78C1603.45 1984.75 1607.11 1993.35 1605.77 1998.41C1595.74 2001.78 1597.77 1996.34 1588.1 1995.16C1583.83 2010.98 1598.91 2013.64 1577.53 2019.16C1576.62 2019.66 1575.71 2020.16 1574.8 2020.67C1571.09 2013.78 1575.7 2004.11 1572.25 1992.53C1561.38 1989.8 1571.23 1997.4 1559.21 1991.45C1557.73 1986.09 1557.82 1988.9 1560.79 1982.85L1563.61 1982.52C1567.06 1982.1 1569.81 1981.63 1573.22 1981C1573.29 1974.38 1572.12 1968.37 1576.79 1963.91L1585.03 1965.63L1586.47 1963.92L1581.2 1960.95L1582.97 1951.07C1578.24 1948.84 1578.54 1949.47 1573.03 1948.76C1569.95 1944.18 1570.61 1941.86 1572.94 1936.54Z"/><path fill="#ECC439" transform="scale(0.439697 0.439697)" d="M1539.69 1936.52C1552.82 1942.68 1541.69 1944.17 1543.97 1952.74C1549.34 1952.26 1550.41 1952.25 1555.78 1952.7C1559.36 1957.56 1558.25 1954.77 1558.09 1961.7L1554.91 1964.23C1548.04 1963.04 1551.05 1964.47 1545.78 1959.42L1543.95 1960.15L1545.19 1996.67C1550.82 1996.07 1550.89 1995.73 1556.26 1997.11C1559.04 2003.73 1558.16 2000.16 1556.36 2008.95C1547.28 2009.43 1544.69 2008.63 1535.57 2006.9L1536.87 2002.43C1533.43 1994.71 1535.25 1997.37 1527.42 1992.31C1525.51 1985.48 1526.89 1986.08 1529.92 1977.76L1528.07 1975.66C1523.12 1978.15 1523.51 1978.13 1517.99 1978.26L1515.15 1975.42C1516.44 1969.12 1514.96 1971.76 1519.97 1967.38C1525.65 1967.84 1535.25 1969.44 1539.11 1965.48L1536.93 1963.35C1530.31 1965.11 1527.35 1964.97 1520.65 1965.21C1515.6 1962.49 1517.62 1964.39 1514.8 1958.92C1519.89 1951.98 1522.96 1954.08 1529.13 1950.4C1532.86 1948.17 1524.68 1948.92 1529.07 1939.96L1539.69 1936.52Z"/><path fill="#ECC439" transform="scale(0.439697 0.439697)" d="M1561.56 2035.29C1565.05 2034 1564.66 2034.56 1568.79 2034.81C1571.73 2039.24 1572.58 2039.64 1573.51 2044.74L1567.41 2048.65C1571.51 2054.29 1571.6 2054.21 1574.02 2060.69L1572.79 2059.27L1567.96 2061.47C1564.03 2058.75 1563.95 2058 1560.73 2054.27L1559.45 2050.65C1550.99 2049.31 1547.69 2048.88 1539.11 2049.02L1537.14 2049.07C1532.88 2044.39 1532.04 2044.56 1531.46 2038.52C1536.78 2034.25 1552.63 2035.64 1561.56 2035.29Z"/><path fill="#ECC439" transform="scale(0.439697 0.439697)" d="M1627.79 1825.28L1633.01 1826.12C1637.78 1831.26 1636.21 1828.32 1637.64 1835.4L1636.95 1836.54C1637.14 1845.78 1633.91 1865.8 1629.51 1874.44C1627.58 1875.32 1626.18 1875 1623.77 1875.05L1621.3 1872.43C1620.91 1857.44 1622.72 1839.46 1627.79 1825.28Z"/><path fill="#ECC439" transform="scale(0.439697 0.439697)" d="M1723.18 1623.03C1730.63 1622.55 1728.1 1621.28 1732.92 1624.4C1733.14 1632.41 1734.22 1628.99 1730.54 1635.27C1736.95 1635.17 1739.61 1634.54 1745.75 1633.35L1749.84 1636.16C1750.34 1640.96 1750.55 1640.68 1748.16 1644.83L1745.94 1641.23L1742.76 1640.6C1736.9 1645.04 1726.67 1646.96 1719.57 1646.13C1720.46 1642.97 1721.31 1639.8 1722.1 1636.62L1717.49 1634.02C1716.52 1627.34 1715.6 1630.1 1719.03 1625.17C1720.41 1624.46 1721.8 1623.74 1723.18 1623.03Z"/><path fill="#ECC439" transform="scale(0.439697 0.439697)" d="M1699.41 1803.94C1701.37 1803.97 1699.94 1803.82 1703.24 1805.92C1700.67 1818.75 1707.27 1809.4 1704.99 1820.07L1700.07 1819.17L1697.39 1814.75L1694.37 1815.98L1694.48 1822.83L1689.86 1825.02C1688.07 1821.87 1689.13 1823.48 1686.61 1820.25L1685.98 1820.98L1686.27 1817.02L1685.34 1819.76C1681.86 1822.38 1683.79 1821.86 1679.55 1821.42C1680.54 1817.05 1681.41 1813.23 1682.19 1808.81L1682.69 1805.88L1685.52 1803.98C1689.85 1805 1692.8 1805.54 1697.2 1806.19L1699.41 1803.94Z"/><path fill="#AAC57C" transform="scale(0.439697 0.439697)" d="M2018.97 2123.26L2021.96 2124.91C2022.62 2133.32 2023.76 2129.74 2018.89 2136.17C2011.19 2139.45 2012.15 2140.68 2006.34 2138.52L2003.16 2137.8C1999.85 2133.77 2000.95 2136.12 2001.12 2130.08C2007.31 2127.27 2012.54 2125.5 2018.97 2123.26Z"/><path fill="#ECC439" transform="scale(0.439697 0.439697)" d="M1663.78 1820.72C1665.13 1828.09 1664.78 1833.68 1659.81 1839.09L1651.87 1838.78L1647.58 1835.56C1650.93 1827.92 1656.59 1824.65 1663.78 1820.72Z"/><path fill="#ECC439" transform="scale(0.439697 0.439697)" d="M1621.9 1802.64C1629.29 1802.95 1630.42 1801.97 1636.1 1805.53C1635.89 1810.12 1635.56 1814.02 1635.11 1818.6L1633.14 1821.96L1629.56 1822.28C1625.56 1817.97 1623.68 1808.75 1621.9 1802.64Z"/><path fill="#ECC439" transform="scale(0.439697 0.439697)" d="M1553.97 2090.76L1564.02 2095.31L1564.5 2097.63C1560.57 2098.13 1557.63 2099.08 1553.93 2100.48C1545.55 2099.52 1548.97 2101.1 1542.83 2096.68L1544.27 2093.43L1553.97 2090.76Z"/><path fill="#ECC439" transform="scale(0.439697 0.439697)" d="M1671.9 1968C1674.65 1967.19 1673.06 1967.24 1676.56 1969.05L1676.77 1973.91L1673.48 1977.38L1668.64 1977.08C1662.16 1975.26 1664.21 1977.2 1661.25 1972.4C1665.1 1967.94 1664.59 1969.32 1671.9 1968Z"/><path fill="#458989" transform="scale(0.439697 0.439697)" d="M2546.73 1474.83C2552.52 1491.31 2549.6 1636.03 2549.61 1660.97L2550.14 1974.03L2551.22 2303.19C2551.09 2347.51 2552.29 2406.17 2549.96 2449.88C2508.45 2450.58 2464.92 2449.6 2423.28 2449.14C2402.17 2448.91 2369.07 2449.76 2349.13 2448.14C2348.2 2244.11 2348.64 2040.08 2350.45 1836.06C2356.72 1871.04 2350.83 1911.14 2353.87 1947.05L2355.27 1947.81L2356.92 1940.23L2359.26 1940.33C2359.87 1942.36 2360.49 1944.4 2361.1 1946.43L2362.88 1940.56C2363.93 1948.57 2362.13 1945.63 2366.9 1950.47L2370.47 1948.84C2371.76 1945.39 2372.39 1943.65 2373.4 1940.07C2373.43 1956.91 2371.78 1973.38 2371.58 1990.6C2371.25 1998.48 2369.04 2025.36 2371.52 2030.67C2378.47 2029 2375.71 2030.74 2380.28 2025.62C2380.69 2018 2381.08 2008.02 2384.33 2001.31C2384.34 2008.8 2382.86 2006.36 2386.54 2010.55C2389.71 2007.82 2388.29 2009.25 2388.91 2003L2389.81 2014.74C2398.55 2003.88 2398.01 2004.25 2410.33 2002.33C2418.37 1999.35 2418.3 1997.83 2417.42 1988.74L2417.1 1985.1C2426.17 1993.93 2412.77 1991.56 2424.43 1994.64C2428.09 2004.28 2425.76 2014.88 2422.9 2024.35L2426.68 2026.42L2429.09 2025.37C2430.51 2015.64 2428.72 2000.86 2432.39 1995.25L2434.03 1995.59L2431.87 1997.7C2436.37 2006.19 2436.62 2006.72 2432.27 2016.07L2438.04 2020.74L2436.88 2024.96L2439.56 2026.51C2445.19 2016.09 2432.49 2016.74 2444.17 2003.03L2440.01 1997.12L2441.16 1994.89L2445.54 1995.43L2443.13 1994.58L2445.06 1994.97C2446.83 1999.84 2447.38 2014.28 2448.28 2021.09C2464.26 2007.66 2453.06 2014.42 2460.94 2001.26L2464.49 2006.1L2464.08 2003.25C2467.75 1998.51 2469.16 1996.34 2474.97 1996.48C2482.02 2009.14 2468.06 2015 2482.85 2025.25C2494.24 2021.75 2479.68 2023.38 2487.16 2013.67C2493.55 2014.42 2509.36 2016.33 2514.72 2013.22L2517.21 2003.86C2522.23 1998.61 2523.07 1999.97 2531.73 1998.01C2538.52 1991.85 2539.75 1976.62 2538.86 1967.89L2533.85 1965.67C2533.4 1962.22 2533.76 1958.76 2533.91 1955.24L2529.11 1953.68L2528.63 1952.18L2533.83 1949.58C2537.04 1942.86 2532.89 1932 2535.3 1920.07L2541.61 1917.67C2541.66 1906.94 2542.07 1894.81 2541.07 1884.25L2539.57 1890.72L2538.68 1887.08L2534.73 1885.47C2538.37 1876.33 2538.37 1887.51 2543.35 1878.89L2538.79 1871.7C2538.98 1871.42 2539.18 1871.15 2539.38 1870.87C2552.08 1853.49 2546.98 1529.49 2546.73 1474.83Z"/><path fill="#779D8E" transform="scale(0.439697 0.439697)" d="M2371.52 2030.67L2373.5 2032.78L2372.77 2036.14L2368.11 2036.92C2363.9 2032.59 2365.25 2034.02 2365.29 2025.78C2357.64 2020.79 2366 2021.17 2355.87 2011.88C2354.79 1991.94 2354.04 1971.98 2353.62 1952L2355.74 1950.56L2356.35 1958.97C2358.88 1959.06 2357.4 1959.23 2360.92 1958.13L2362.23 1962.33L2368.43 1965.5C2372.1 1972.49 2369.78 1981.15 2371.58 1990.6C2371.25 1998.48 2369.04 2025.36 2371.52 2030.67Z"/><path fill="#779D8E" transform="scale(0.439697 0.439697)" d="M2389.81 2014.74C2398.55 2003.88 2398.01 2004.25 2410.33 2002.33C2407.04 2016.63 2411.68 2030.74 2407.53 2044.1L2403.87 2044.99L2401.28 2043.15C2401.02 2038.18 2400.91 2034 2400.92 2029.02C2394.26 2024.91 2393.24 2023.98 2388.33 2017.86L2389.81 2014.74Z"/><path fill="#1E8399" transform="scale(0.439697 0.439697)" d="M2412.2 2351.41L2412.7 2349.25L2409.12 2350.86L2407.18 2349.15L2407.45 2344.7C2410.26 2343.25 2412.05 2342.38 2415 2341.06C2408.72 2334.32 2407.37 2335.2 2406.44 2327.91C2415.95 2314.82 2448.07 2328.28 2462.48 2322.33L2463.94 2319.56C2459.6 2315.36 2461.83 2317.2 2453.63 2316.36C2456.41 2306.91 2462.3 2299.48 2469.2 2292.74C2486.51 2290.69 2534.31 2277.4 2548.55 2288.86L2547.96 2291.96L2540.61 2295.5L2539.92 2298.74L2545.29 2300.45C2543.76 2305.64 2540.39 2307.52 2536.13 2311.06C2533.46 2324.45 2537.87 2330.4 2544.58 2342.08L2542.54 2345.01C2540.1 2344.37 2538.66 2343.87 2536.1 2344.04C2536.28 2351.45 2537.13 2361.66 2535.26 2368.54C2539.77 2368.21 2538.28 2368.23 2542.68 2365.51L2545 2367.07C2545.78 2373.5 2546.28 2373.34 2543.45 2379.01C2540.98 2380.04 2539.63 2380.02 2538.74 2381.6L2545.25 2387.82C2544.45 2398.28 2542.37 2412.02 2543.9 2421.81C2541.04 2412.41 2540.3 2410.7 2539.83 2401.09L2536.69 2402.13C2535.25 2410.5 2537.07 2422.9 2544.25 2428.22L2543.25 2435.27C2531.17 2439.55 2418.43 2442.46 2401.38 2436.37C2396.5 2434.63 2385.73 2439.41 2381.07 2437.35C2402.06 2426.44 2411.23 2432.9 2431.49 2428.49C2403.3 2426.92 2392.75 2428.43 2365.65 2434C2374.33 2424.99 2386.5 2429.19 2401.23 2422.97L2401.09 2421.23C2382.56 2419.87 2379.06 2423.64 2364.9 2423.26L2363.6 2420.48C2371.96 2415.94 2404.4 2415.1 2414.95 2414.42L2401.67 2413.86C2407.2 2413.47 2433.34 2412.49 2435.82 2410.76C2426.14 2410.16 2371.99 2407.33 2366.18 2405.54C2383.02 2403.32 2409.93 2398.55 2426.14 2400.35L2429.75 2398.65L2434.41 2398.33C2431.14 2385.39 2435.95 2380.6 2432.57 2366.52L2428.82 2364.46C2421.69 2365.89 2420.81 2365.38 2413.92 2363.72L2411.98 2363.23C2409.4 2361.34 2410.92 2362.54 2407.29 2359.39L2412.2 2351.41Z"/><path fill="#3F8A8F" transform="scale(0.439697 0.439697)" d="M2408.29 2374.66C2396.96 2371.01 2374.48 2372.73 2359.37 2367.72C2365.92 2363.88 2388.85 2364.56 2400.91 2360.72C2402.84 2351.55 2403.49 2353.46 2412.2 2351.41L2407.29 2359.39C2410.92 2362.54 2409.4 2361.34 2411.98 2363.23L2413.92 2363.72C2420.81 2365.38 2421.69 2365.89 2428.82 2364.46L2432.57 2366.52C2435.95 2380.6 2431.14 2385.39 2434.41 2398.33L2429.75 2398.65C2420.61 2396.74 2415.1 2396.57 2405.84 2396.03C2393.21 2394.08 2364.49 2403.09 2352.74 2393.72C2363.56 2383.44 2390.36 2386.7 2404.57 2387.07C2413.53 2387.02 2413.23 2388.5 2423.5 2386.76C2416.88 2384.06 2413.9 2384.97 2406.37 2384.96C2394.11 2385.19 2366.16 2387.15 2357.06 2380.34L2359.58 2377.81C2376.83 2373.64 2390.32 2374.78 2407.81 2375.63L2408.29 2374.66Z"/><path fill="#1E8399" transform="scale(0.439697 0.439697)" d="M2495.65 2246.38C2531.05 2255.34 2550.13 2224.14 2547.96 2282.98L2501.5 2282.98C2492.81 2282.7 2494.14 2283.98 2487.62 2280.07C2487.81 2274.24 2487.18 2277.08 2491 2271.82L2510.97 2271.1L2510.95 2269.86C2502.79 2268.58 2496.5 2268.07 2488.24 2267.45L2486.54 2264.6L2494.28 2257.28L2494.88 2257.72L2497.73 2255.85L2495.65 2246.38Z"/><path fill="#3F8A8F" transform="scale(0.439697 0.439697)" d="M2540.88 2209.63C2544.2 2208.52 2542.34 2208.81 2546.52 2209.15C2549.74 2216.21 2549.33 2212.66 2548.01 2220.14C2543.53 2223.69 2533.16 2223.04 2526.87 2223.29C2526.36 2227.49 2526.23 2229.22 2525.23 2233.32L2511.54 2232.57L2508.35 2232.3L2506.52 2229.32C2507.47 2228.5 2528.77 2212.82 2530.73 2211.39C2534.27 2211.33 2537.47 2210.54 2540.88 2209.63Z"/><path fill="#3F8A8F" transform="scale(0.439697 0.439697)" d="M2351.37 2337.73C2358.22 2337.27 2392.21 2337.64 2397.87 2340.1L2400.94 2348.16C2391.19 2349.4 2366.14 2348.52 2356.05 2345.92C2353.09 2345.15 2353.05 2342.05 2351.37 2337.73Z"/><path fill="#3F8A8F" transform="scale(0.439697 0.439697)" d="M2351.6 2287.26C2367.09 2289.07 2374.97 2283.43 2383.94 2289.89C2385.51 2296.64 2386.17 2293.8 2383.97 2299.12L2374.78 2301.72L2369.95 2300.71C2369.43 2306.28 2370.72 2304.42 2367.29 2307.28C2367.35 2304.3 2367.25 2305.51 2367.62 2302.49L2367.89 2300.35C2361.97 2296.35 2365.35 2297.44 2357.01 2298.51C2351.75 2294.97 2353.42 2295.75 2351.6 2287.26Z"/><path fill="#3F8A8F" transform="scale(0.439697 0.439697)" d="M2356.21 2349.29C2365.38 2349.47 2372.8 2348.49 2380.38 2353.09L2380.57 2361.36C2371.55 2359.45 2359.5 2362.14 2354.49 2356.1L2356.21 2349.29Z"/><path fill="#3F8A8F" transform="scale(0.439697 0.439697)" d="M2386.88 2268.9L2394.88 2268.58L2397.73 2271.68C2397.98 2277.53 2397.89 2279.05 2399.65 2284.7L2400.87 2288.49L2389.63 2285.85C2385.3 2280.67 2386.99 2277.65 2386.88 2268.9Z"/><path fill="#3F8A8F" transform="scale(0.439697 0.439697)" d="M2449.47 2257.57C2453.94 2257.27 2456.59 2257.31 2461.06 2257.32C2466.87 2261.88 2464.56 2258.95 2466.64 2267.5C2461.79 2267.88 2456.94 2268.11 2452.08 2268.22C2447.62 2263.35 2449.26 2266.38 2449.47 2257.57Z"/><path fill="#A1BF7E" transform="scale(0.439697 0.439697)" d="M2318.72 1473.72L2490.51 1474.58C2468.97 1475.22 2450.8 1476.43 2431.43 1487.68C2428.48 1491.73 2429.24 1494.17 2429.32 1499.35L2427.09 1496.14L2429.13 1492.14C2423.49 1486.38 2400.61 1487.87 2389.62 1486.11C2389.62 1490.77 2389.95 1495.16 2389.03 1499.64L2382.85 1497.7L2381.34 1498.96C2385.37 1500.38 2383.77 1499.3 2386.35 1501.87C2383.87 1509.71 2383.22 1511.36 2375.15 1515.49C2372.52 1516.81 2369.87 1518.07 2367.18 1519.26L2364.5 1526.93L2371.75 1523.75C2374.83 1528.6 2374.47 1528.4 2379.75 1530.59C2399.05 1527.22 2382.8 1525.1 2399.09 1509.72C2401.74 1507.22 2400.69 1507.85 2404.45 1508.08C2406.11 1511.1 2407.79 1514.09 2409.51 1517.07C2407.86 1518.05 2403.78 1520.26 2402.62 1521.46L2397.35 1522.53C2395.02 1528.95 2394.99 1525.93 2396.42 1531.83L2398.36 1532.96L2386.64 1536.72L2386.2 1541.06C2391.25 1542.45 2390.33 1542.22 2395.52 1542.62C2392.83 1552.01 2391.69 1540.56 2389.48 1550.84L2393.88 1556.07C2392 1559.42 2392.48 1558.12 2388.19 1560.54L2390.53 1563.44C2395.13 1560.98 2393.01 1562.43 2396.92 1559.11C2405.1 1567.57 2393.93 1571.67 2412.74 1571.14L2412.74 1574.08C2407.62 1577.3 2402.59 1580.68 2397.67 1584.19C2397.15 1591.11 2402.01 1590.76 2404.95 1602.65L2401.96 1604.26C2392.59 1609.26 2388.18 1606.99 2382.86 1616.08C2382.92 1623.11 2382.79 1629.32 2383.68 1636.33C2381.83 1644.23 2384.01 1641.89 2378.95 1645.56C2366.44 1643.62 2372.09 1640.88 2358.17 1641.08L2356.16 1642.9C2356.87 1649.32 2358.27 1657.8 2357.24 1663.88C2354.77 1658.39 2354.91 1656.75 2350.61 1653.21C2346.78 1658.14 2348.48 1660.11 2350.64 1666.12C2347.42 1672.88 2345.95 1673.55 2340.31 1678.23L2344.17 1680.63C2341.6 1687.72 2331.75 1696.07 2323.56 1695.19L2320.14 1690.07C2314.18 1695.45 2316.47 1699.09 2318.3 1706.36L2315.98 1709.68C2309.08 1710.15 2312.5 1710.29 2304.94 1706.6L2303.35 1710.15C2301 1702.05 2301.88 1700.85 2295.19 1695.64C2289.21 1695.55 2289.61 1695.39 2284.56 1698.58L2291.57 1699.02L2292.26 1701.55C2287.39 1709.3 2292.77 1723.23 2290.08 1735.06L2288.94 1734.96C2286.13 1726.75 2287.9 1727.44 2282.2 1724.26C2279.87 1726.13 2279.52 1726.91 2277.61 1729.25C2273.6 1727.93 2273.65 1728.36 2270.28 1726.07C2272.66 1734.49 2278.27 1749.33 2276.18 1756.9C2265.86 1763.44 2259.59 1754.7 2252.91 1761.9L2259.11 1762.94L2260.95 1765.74L2259.82 1770.11C2254.51 1768.68 2251.96 1764.44 2248.21 1760.07L2253.01 1750.24C2248.13 1750.31 2250.04 1749.39 2246.62 1751.79C2244.92 1748.94 2243.33 1746.31 2241.55 1743.5L2237.53 1742.64C2229.47 1750.23 2222.39 1764.97 2214.06 1767.27C2209.09 1768.65 2212.18 1767.44 2209.38 1768.85L2206.24 1768.97C2204.5 1765.43 2204.05 1764.9 2201.84 1761.63C2197.95 1760.39 2199.84 1761.46 2196.47 1757.96C2221.56 1694.57 2254.09 1630.22 2279.88 1566.66C2290.9 1539.51 2310.98 1501.16 2318.72 1473.72Z"/><path fill="#AAC57C" transform="scale(0.439697 0.439697)" d="M2364.5 1526.93L2363.41 1528.19C2355.68 1530.62 2360.34 1529.89 2353.87 1527.82C2353.35 1520.34 2358.98 1516.67 2361.82 1506.12C2354.68 1497.5 2331.57 1507.77 2321.86 1502.74C2327.28 1495.01 2332.25 1489.24 2334.31 1480.2L2332.04 1477.62C2336.49 1477.65 2361.68 1477.78 2362.37 1478.43C2378.98 1493.79 2373.32 1484.36 2389.62 1486.11C2389.62 1490.77 2389.95 1495.16 2389.03 1499.64L2382.85 1497.7L2381.34 1498.96C2385.37 1500.38 2383.77 1499.3 2386.35 1501.87C2383.87 1509.71 2383.22 1511.36 2375.15 1515.49C2372.52 1516.81 2369.87 1518.07 2367.18 1519.26L2364.5 1526.93Z"/><path fill="#3F8A8F" transform="scale(0.439697 0.439697)" d="M2464.08 2003.25C2465.39 1993.33 2465.36 1981.27 2465.65 1971.11C2463.63 1970.35 2461.78 1970.22 2459.63 1970.04L2459.84 1968.33L2465.43 1967.36C2465.23 1963.37 2465.28 1965.42 2465.29 1961.19C2470.96 1960.51 2473.55 1961.42 2479.05 1962.58L2480.11 1965.23L2468.45 1975.13L2468.8 1979.3C2475.33 1983.28 2471.77 1982.19 2480.07 1981.83C2486.56 1974.21 2481.96 1975.34 2485.46 1963.01C2490.85 1960.78 2488.3 1960.62 2493.27 1962.26C2493.16 1967.88 2493.1 1973.5 2493.08 1979.12L2495.78 1980.15C2503.22 1972.66 2494.3 1971.34 2500.31 1962.01C2506.31 1961.86 2504.55 1960.71 2507.93 1963.39C2506.9 1968.98 2506.7 1974.42 2505.74 1980.13L2509.1 1980.59C2513.42 1988.3 2517.51 1986.6 2526.2 1986.69C2531.91 1991.16 2530.12 1989.04 2531.73 1998.01C2523.07 1999.97 2522.23 1998.61 2517.21 2003.86L2514.72 2013.22C2509.36 2016.33 2493.55 2014.42 2487.16 2013.67C2479.68 2023.38 2494.24 2021.75 2482.85 2025.25C2468.06 2015 2482.02 2009.14 2474.97 1996.48C2469.16 1996.34 2467.75 1998.51 2464.08 2003.25Z"/><path fill="#A1BF7E" transform="scale(0.439697 0.439697)" d="M2210 1833.76L2213.66 1828.98C2210.8 1820.42 2203.02 1826.74 2206.49 1816.43L2211.6 1815.83C2215.32 1806.01 2211.91 1799.64 2215.91 1797.82C2227.89 1819.54 2209.13 1825.32 2219.9 1831.86C2227.35 1824.89 2226.53 1818.36 2233.76 1812.57L2232.23 1813.28L2235.17 1814.45C2235.19 1819.88 2235.74 1821.06 2234.02 1826.07L2232.89 1822.48L2231.67 1821.36C2230.18 1825.98 2229.33 1827.03 2229.29 1831.6L2238.09 1832.28L2240.26 1830.04L2236.27 1822.62L2237.39 1819.87C2245.23 1818.5 2249.1 1820.14 2257.07 1822.01L2256.8 1824.24C2249.71 1825.22 2250.03 1825.26 2243 1824.02C2241.77 1838.75 2242.27 1841.85 2246.6 1855.9C2239.04 1861.05 2228.1 1854.96 2221.53 1865.67C2219.35 1869.23 2215.48 1871.83 2211.84 1873.76C2207.2 1871.57 2208.76 1872.74 2205.68 1868.43L2202.34 1868.79L2202.3 1870.55L2203.08 1868.52L2202.98 1875.66C2200.13 1877.28 2192.93 1876.8 2189.8 1875.42L2193.39 1871.67L2199.17 1872.6L2196.7 1870.11L2195.33 1870.47L2197.19 1875.56L2199.35 1873.95L2198.81 1870.5L2196.05 1873.29L2198.65 1875.22L2198.99 1870.59L2195.44 1871.81C2193.79 1865.27 2193.75 1865.75 2195.27 1859.19L2193.17 1853.76L2202 1851.33C2202 1838.66 2205.81 1846 2199.73 1833.94C2203.48 1834.03 2204.12 1833.26 2207.59 1831.84L2210 1833.76Z"/><path fill="#AAC57C" transform="scale(0.439697 0.439697)" d="M2199.73 1833.94C2203.48 1834.03 2204.12 1833.26 2207.59 1831.84L2210 1833.76C2208.23 1839.32 2209.04 1840.46 2210.59 1846.06C2206.57 1851.08 2209.08 1849 2202 1851.33C2202 1838.66 2205.81 1846 2199.73 1833.94Z"/><path fill="#AAC57C" transform="scale(0.439697 0.439697)" d="M2209.38 1768.85C2212.18 1767.44 2209.09 1768.65 2214.06 1767.27C2222.39 1764.97 2229.47 1750.23 2237.53 1742.64L2241.55 1743.5C2243.33 1746.31 2244.92 1748.94 2246.62 1751.79C2245.96 1760.12 2245.4 1769.62 2241.21 1776.86C2230.36 1779.81 2232.01 1768.77 2226.6 1775.33C2225.33 1783.46 2226.98 1780 2221.42 1786.09L2223.09 1787.66C2217.06 1791.61 2216.15 1792.29 2212.08 1798.2L2211.32 1792.99C2207.93 1789.07 2206.94 1789.25 2202.01 1787.18C2190.59 1787.97 2190.02 1790.54 2179.84 1794.56C2185.11 1782.48 2190.43 1769.61 2196.47 1757.96C2199.84 1761.46 2197.95 1760.39 2201.84 1761.63C2204.05 1764.9 2204.5 1765.43 2206.24 1768.97L2209.38 1768.85Z"/><path fill="#A1BF7E" transform="scale(0.439697 0.439697)" d="M1963.67 2233.68L1966.02 2231.73L1966.17 2228.41C1967.41 2204.87 1959.11 2198.63 1987.84 2194.37C1987.29 2200.31 1986 2205.75 1987.09 2211.57L1981.87 2212.49L1981.96 2215.5C1988.48 2218.95 1989.43 2219.21 1996.57 2221.38C1992.37 2224.74 1994.53 2223.3 1987.4 2223.49C1987.05 2232.65 1987.86 2244.39 1983.29 2251.77L1987.89 2262.39L1986.4 2266.14C1979.5 2268.85 1974.64 2267.51 1967.13 2268.26L1967.82 2260.99C1956.89 2243.96 1971.26 2256.99 1963.67 2233.68Z"/><path fill="#95B094" transform="scale(0.439697 0.439697)" d="M1966.02 2433.85C1992.44 2440.47 2014.3 2432.61 2038.58 2436.93L2040.24 2439.67C2042.46 2437.97 2041.67 2439.08 2042.52 2436.27C2050.09 2435.33 2057.82 2433.85 2065.25 2435.07L2061.67 2438.53C2065.18 2438.98 2068.69 2439.5 2072.19 2440.1C2046.49 2446.22 2032.31 2439 2000.74 2449.55C1981.18 2450.44 1974.45 2454.03 1966.02 2433.85Z"/><path fill="#458989" transform="scale(0.439697 0.439697)" d="M2509.1 1980.59C2510.6 1972.75 2514.26 1961.67 2512.4 1954.91C2514.04 1949.15 2512.46 1951.48 2517.62 1947.9C2523.23 1953.36 2516.28 1956.61 2521.85 1965.14L2527.92 1962.76L2533.85 1965.67L2538.86 1967.89C2539.75 1976.62 2538.52 1991.85 2531.73 1998.01C2530.12 1989.04 2531.91 1991.16 2526.2 1986.69C2517.51 1986.6 2513.42 1988.3 2509.1 1980.59Z"/><path fill="#95B094" transform="scale(0.439697 0.439697)" d="M2404.95 1602.65L2409.21 1607.25L2409 1610.8C2408.56 1619.68 2411.25 1625.63 2408.31 1632.99C2402.09 1636.43 2405.6 1635.5 2397.01 1633.75L2395.25 1625.43C2390.59 1623.93 2392.91 1623.94 2388.2 1626.29C2388.01 1629.62 2387.83 1631.07 2386.89 1634.36L2383.68 1636.33C2382.79 1629.32 2382.92 1623.11 2382.86 1616.08C2388.18 1606.99 2392.59 1609.26 2401.96 1604.26L2404.95 1602.65Z"/><path fill="#95B094" transform="scale(0.439697 0.439697)" d="M2402.62 1521.46C2403.78 1520.26 2407.86 1518.05 2409.51 1517.07C2406.84 1527.73 2408.62 1532.25 2404.77 1544.2L2403.64 1544.02C2402.76 1540.05 2402.68 1542.11 2404.31 1537.85L2402.02 1535.92L2402.62 1521.46Z"/><path fill="#A1BF7E" transform="scale(0.439697 0.439697)" d="M2247.82 1779.09L2248.99 1779.76C2250.23 1788.76 2250.71 1796.57 2250.35 1805.62C2247.54 1809 2247.65 1808.82 2243.87 1811.12L2241.57 1814.4L2238.78 1813.66C2234.67 1805.52 2235.3 1791.8 2236.72 1782.87C2244.07 1782.71 2240.42 1783.35 2247.82 1779.09Z"/><path fill="#95B094" transform="scale(0.439697 0.439697)" d="M2003.51 2394.66C2013.42 2393.66 2021.02 2394.04 2030.78 2395.42L2024.37 2397.18L2030.71 2397.57L2033.61 2399.17L2034.13 2401.09C2021.55 2404.19 2011.32 2405.72 2003.51 2394.66Z"/><path fill="#95B094" transform="scale(0.439697 0.439697)" d="M2386.55 1647.79C2394.57 1647.63 2393.3 1646.4 2398.73 1650.08C2399.64 1657.09 2398.91 1655.65 2395.58 1663.24C2391.4 1662.18 2391.21 1661.23 2387.36 1658.4C2384.6 1651.48 2384.81 1654.9 2386.55 1647.79Z"/><defs><linearGradient id="gradient_1" gradientUnits="userSpaceOnUse" x1="2566.6494" y1="1916.8169" x2="3184.439" y2="2296.2905"><stop offset="0" stop-color="#289192"/><stop offset="1" stop-color="#0452B0"/></linearGradient></defs><path fill="url(#gradient_1)" transform="scale(0.439697 0.439697)" d="M2593.86 1707.72C2649.61 1709.15 2741.48 1707.02 2801.21 1709.47C2803.04 1710.73 2804.87 1711.99 2806.7 1713.25C2826.21 1778.13 2852.03 1843.13 2872.71 1908.1L2941.41 2121.81C2953.51 2158.33 2965.89 2198.2 2979.99 2233.7C2987.47 2206.21 2999.32 2175.63 3008.44 2147.91L3062.2 1980.98C3067.02 1965.84 3070.08 1946.73 3075.64 1932.51C3102.53 1863.7 3119.69 1779.08 3149.68 1712.56C3189.85 1711.86 3230.03 1711.71 3270.2 1712.12C3295.03 1712.22 3327.89 1711.59 3351.84 1713.39C3309.63 1835.24 3261.35 1956.83 3218.59 2079.26L3128.96 2329.36C3100.88 2408.18 3074.92 2490.22 3034.06 2561.87C2960.47 2690.96 2819.39 2713.24 2688.61 2666.43C2660.69 2656.44 2640.79 2647.22 2621.84 2623.82C2639.43 2590.59 2674.45 2531.83 2695.34 2500.3C2746.32 2526.63 2826.18 2549.31 2863.49 2486.46C2877.17 2463.42 2870.09 2443.65 2862.29 2420.28C2848.5 2383.16 2833.19 2346.07 2819.12 2308.81L2710.94 2021.51C2693.98 1976.8 2668.52 1916.21 2654.48 1872.62C2642.11 1839.27 2629.52 1806 2616.72 1772.81C2609.98 1755.23 2597.03 1725.26 2593.86 1707.72Z"/><path fill="#458989" transform="scale(0.439697 0.439697)" d="M2593.86 1707.72C2649.61 1709.15 2741.48 1707.02 2801.21 1709.47C2803.04 1710.73 2804.87 1711.99 2806.7 1713.25C2770.6 1714.9 2727.08 1717.36 2691.46 1716.69C2702.27 1726.86 2719.86 1716.07 2726.47 1733.17C2723.69 1741.36 2715.1 1743.49 2709.24 1747.5C2687.69 1762.26 2686.98 1802.17 2675.86 1822.77C2672.3 1829.37 2662.43 1829.65 2661.04 1843.63C2663.83 1843.45 2665.92 1843.29 2668.72 1842.95L2669.81 1845.98L2667.74 1850.23C2664.04 1849.97 2660.57 1849.95 2656.89 1850.41C2652.62 1857.68 2654.4 1862.96 2654.48 1872.62C2642.11 1839.27 2629.52 1806 2616.72 1772.81C2609.98 1755.23 2597.03 1725.26 2593.86 1707.72Z"/><path fill="#ECC439" transform="scale(0.439697 0.439697)" d="M1565.21 1475.1C1608.89 1472.67 1666.81 1473.68 1710.91 1474.47C1657.96 1555.19 1603.46 1634.88 1547.45 1713.51C1449.36 1854.61 1349.51 1994.48 1247.94 2133.09L1101.25 2334.74C1076.5 2368.96 1043.97 2417.11 1018.33 2448.36L778.986 2448.03L861.481 2334.6C876.033 2314.66 894.85 2287.35 910.394 2268.82L1065.73 2055.45C1030.99 2014.47 1001.54 1975.7 968.417 1934.15C908.386 1859.72 849.187 1784.62 790.832 1708.86L1045.45 1708.93C1080.02 1750.17 1110.59 1798.02 1145.02 1839.84C1159.44 1857.36 1171.9 1876.51 1187.62 1893.08C1213.7 1861.53 1247.29 1807.76 1271.41 1773.23C1305.3 1724.74 1338.21 1675.39 1373.3 1627.38C1391.24 1602.84 1405.6 1575.86 1425.56 1551.76C1455.82 1515.26 1518.09 1479.24 1565.21 1475.1Z"/><path fill="#DACB48" transform="scale(0.439697 0.439697)" d="M1359.71 2107.46C1368.56 2115.49 1421.07 2187.83 1430.94 2201C1478.46 2263.86 1526.56 2326.27 1575.25 2388.22C1582.9 2397.81 1617.32 2437.92 1617.78 2446.81C1613.11 2450.56 1512.63 2448.86 1498.5 2448.85C1459.31 2447.28 1412.51 2448.65 1372.3 2448.08C1355.94 2429.93 1327.66 2390.95 1311.75 2370.19C1296.79 2350.66 1248.33 2291.8 1239.7 2273.24C1241.22 2259.33 1344.29 2119.9 1359.71 2107.46Z"/></svg>